<svg width="375" height="677" viewBox="0 0 375 677" fill="none" xmlns="http://www.w3.org/2000/svg">
<path d="M27 393C22.2 390.6 -50.3333 412.667 -86 424C-88 482 -87.8 609.8 -71 657C-50 716 75 681 112 668C149 655 154 642 174 598C194 554 148 491 117 435C86 379 33 396 27 393Z" fill="#FF8882" fill-opacity="0.61"/>
<path d="M216 68C228.667 42.6667 286 -6.20001 414 0.999995C438.333 71.6667 485.8 217 481 233C475 253 395 298 345 300C295 302 255 264 200 208C156 163.2 192.333 96 216 68Z" fill="#28B5B5" fill-opacity="0.65"/>
</svg>
