<svg width="93" height="32" viewBox="0 0 93 32" fill="none" xmlns="http://www.w3.org/2000/svg">
<path d="M14.8125 17.6739L17.1094 5.53325H20.6133L16.8281 22.5957H13.2891L10.5117 11.1817L7.73438 22.5957H4.19531L0.410156 5.53325H3.91406L6.22266 17.6504L9.03516 5.53325H12.0117L14.8125 17.6739Z" fill="#F87070"/>
<path d="M29.6484 22.5957C29.4922 22.2911 29.3789 21.9122 29.3086 21.459C28.4883 22.3731 27.4219 22.8301 26.1094 22.8301C24.8672 22.8301 23.8359 22.4707 23.0156 21.752C22.2031 21.0332 21.7969 20.127 21.7969 19.0332C21.7969 17.6895 22.293 16.6582 23.2852 15.9395C24.2852 15.2207 25.7266 14.8575 27.6094 14.8497H29.168V14.1231C29.168 13.5372 29.0156 13.0684 28.7109 12.7168C28.4141 12.3653 27.9414 12.1895 27.293 12.1895C26.7227 12.1895 26.2734 12.3262 25.9453 12.5997C25.625 12.8731 25.4648 13.2481 25.4648 13.7247H22.0781C22.0781 12.9903 22.3047 12.3106 22.7578 11.6856C23.2109 11.0606 23.8516 10.5723 24.6797 10.2207C25.5078 9.86137 26.4375 9.68168 27.4688 9.68168C29.0312 9.68168 30.2695 10.0762 31.1836 10.8653C32.1055 11.6465 32.5664 12.7481 32.5664 14.17V19.6661C32.5742 20.8692 32.7422 21.7793 33.0703 22.3965V22.5957H29.6484ZM26.8477 20.2403C27.3477 20.2403 27.8086 20.1309 28.2305 19.9122C28.6523 19.6856 28.9648 19.3848 29.168 19.0098V16.8301H27.9023C26.207 16.8301 25.3047 17.4161 25.1953 18.5879L25.1836 18.7872C25.1836 19.209 25.332 19.5567 25.6289 19.8301C25.9258 20.1036 26.332 20.2403 26.8477 20.2403ZM38.4727 11.2989C39.3711 10.2207 40.5 9.68168 41.8594 9.68168C44.6094 9.68168 46.0039 11.2793 46.043 14.4747V22.5957H42.6562V14.5684C42.6562 13.8418 42.5 13.3067 42.1875 12.9629C41.875 12.6114 41.3555 12.4356 40.6289 12.4356C39.6367 12.4356 38.918 12.8184 38.4727 13.584V22.5957H35.0859V4.59575H38.4727V11.2989ZM48.0703 16.1387C48.0703 14.8809 48.3125 13.7598 48.7969 12.7754C49.2812 11.7911 49.9766 11.0293 50.8828 10.4903C51.7969 9.95121 52.8555 9.68168 54.0586 9.68168C55.7695 9.68168 57.1641 10.2051 58.2422 11.252C59.3281 12.2989 59.9336 13.7207 60.0586 15.5176L60.082 16.3848C60.082 18.3301 59.5391 19.8926 58.4531 21.0723C57.3672 22.2442 55.9102 22.8301 54.082 22.8301C52.2539 22.8301 50.793 22.2442 49.6992 21.0723C48.6133 19.9004 48.0703 18.3067 48.0703 16.2911V16.1387ZM51.457 16.3848C51.457 17.5879 51.6836 18.5098 52.1367 19.1504C52.5898 19.7832 53.2383 20.0997 54.082 20.0997C54.9023 20.0997 55.543 19.7872 56.0039 19.1622C56.4648 18.5293 56.6953 17.5215 56.6953 16.1387C56.6953 14.959 56.4648 14.045 56.0039 13.3965C55.543 12.7481 54.8945 12.4239 54.0586 12.4239C53.2305 12.4239 52.5898 12.7481 52.1367 13.3965C51.6836 14.0372 51.457 15.0332 51.457 16.3848ZM61.6406 16.1387C61.6406 14.8809 61.8828 13.7598 62.3672 12.7754C62.8516 11.7911 63.5469 11.0293 64.4531 10.4903C65.3672 9.95121 66.4258 9.68168 67.6289 9.68168C69.3398 9.68168 70.7344 10.2051 71.8125 11.252C72.8984 12.2989 73.5039 13.7207 73.6289 15.5176L73.6523 16.3848C73.6523 18.3301 73.1094 19.8926 72.0234 21.0723C70.9375 22.2442 69.4805 22.8301 67.6523 22.8301C65.8242 22.8301 64.3633 22.2442 63.2695 21.0723C62.1836 19.9004 61.6406 18.3067 61.6406 16.2911V16.1387ZM65.0273 16.3848C65.0273 17.5879 65.2539 18.5098 65.707 19.1504C66.1602 19.7832 66.8086 20.0997 67.6523 20.0997C68.4727 20.0997 69.1133 19.7872 69.5742 19.1622C70.0352 18.5293 70.2656 17.5215 70.2656 16.1387C70.2656 14.959 70.0352 14.045 69.5742 13.3965C69.1133 12.7481 68.4648 12.4239 67.6289 12.4239C66.8008 12.4239 66.1602 12.7481 65.707 13.3965C65.2539 14.0372 65.0273 15.0332 65.0273 16.3848ZM79.793 6.79887V9.91606H81.9609V12.4004H79.793V18.7286C79.793 19.1973 79.8828 19.5332 80.0625 19.7364C80.2422 19.9395 80.5859 20.0411 81.0938 20.0411C81.4688 20.0411 81.8008 20.0137 82.0898 19.959V22.5254C81.4258 22.7286 80.7422 22.8301 80.0391 22.8301C77.6641 22.8301 76.4531 21.6309 76.4062 19.2325V12.4004H74.5547V9.91606H76.4062V6.79887H79.793Z" fill="#423881"/>
<path d="M88.6112 13.9412L85.061 1L92 1.97302L88.6112 13.9412Z" fill="#423881" stroke="#423881"/>
<ellipse cx="87.8366" cy="20.4118" rx="2.77559" ry="2.58824" fill="#F87070"/>
</svg>
