<svg width="340" height="99" viewBox="0 0 340 99" fill="none" xmlns="http://www.w3.org/2000/svg">
<path d="M55.5469 76.543L64.1602 31.0156H77.2998L63.1055 95H49.834L39.4189 52.1973L29.0039 95H15.7324L1.53809 31.0156H14.6777L23.335 76.4551L33.8818 31.0156H45.0439L55.5469 76.543Z" fill="#F87070"/>
<path d="M111.182 95C110.596 93.8574 110.171 92.4365 109.907 90.7373C106.831 94.165 102.832 95.8789 97.9102 95.8789C93.252 95.8789 89.3848 94.5312 86.3086 91.8359C83.2617 89.1406 81.7383 85.7422 81.7383 81.6406C81.7383 76.6016 83.5986 72.7344 87.3193 70.0391C91.0693 67.3438 96.4746 65.9814 103.535 65.9521H109.38V63.2275C109.38 61.0303 108.809 59.2725 107.666 57.9541C106.553 56.6357 104.78 55.9766 102.349 55.9766C100.21 55.9766 98.5254 56.4893 97.2949 57.5146C96.0938 58.54 95.4932 59.9463 95.4932 61.7334H82.793C82.793 58.9795 83.6426 56.4307 85.3418 54.0869C87.041 51.7432 89.4434 49.9121 92.5488 48.5938C95.6543 47.2461 99.1406 46.5723 103.008 46.5723C108.867 46.5723 113.511 48.0518 116.938 51.0107C120.396 53.9404 122.124 58.0713 122.124 63.4033V84.0137C122.153 88.5254 122.783 91.9385 124.014 94.2529V95H111.182ZM100.679 86.167C102.554 86.167 104.282 85.7568 105.864 84.9365C107.446 84.0869 108.618 82.959 109.38 81.5527V73.3789H104.634C98.2764 73.3789 94.8926 75.5762 94.4824 79.9707L94.4385 80.7178C94.4385 82.2998 94.9951 83.6035 96.1084 84.6289C97.2217 85.6543 98.7451 86.167 100.679 86.167ZM144.272 52.6367C147.642 48.5938 151.875 46.5723 156.973 46.5723C167.285 46.5723 172.515 52.5635 172.661 64.5459V95H159.961V64.8975C159.961 62.1729 159.375 60.166 158.203 58.877C157.031 57.5586 155.083 56.8994 152.358 56.8994C148.638 56.8994 145.942 58.335 144.272 61.2061V95H131.572V27.5H144.272V52.6367ZM180.264 70.7861C180.264 66.0693 181.172 61.8652 182.988 58.1738C184.805 54.4824 187.412 51.626 190.811 49.6045C194.238 47.583 198.208 46.5723 202.72 46.5723C209.136 46.5723 214.365 48.5352 218.408 52.4609C222.48 56.3867 224.751 61.7188 225.22 68.457L225.308 71.709C225.308 79.0039 223.271 84.8633 219.199 89.2871C215.127 93.6816 209.663 95.8789 202.808 95.8789C195.952 95.8789 190.474 93.6816 186.372 89.2871C182.3 84.8926 180.264 78.916 180.264 71.3574V70.7861ZM192.964 71.709C192.964 76.2207 193.813 79.6777 195.513 82.0801C197.212 84.4531 199.644 85.6396 202.808 85.6396C205.884 85.6396 208.286 84.4678 210.015 82.124C211.743 79.751 212.607 75.9717 212.607 70.7861C212.607 66.3623 211.743 62.9346 210.015 60.5029C208.286 58.0713 205.854 56.8555 202.72 56.8555C199.614 56.8555 197.212 58.0713 195.513 60.5029C193.813 62.9053 192.964 66.6406 192.964 71.709ZM231.152 70.7861C231.152 66.0693 232.061 61.8652 233.877 58.1738C235.693 54.4824 238.301 51.626 241.699 49.6045C245.127 47.583 249.097 46.5723 253.608 46.5723C260.024 46.5723 265.254 48.5352 269.297 52.4609C273.369 56.3867 275.64 61.7188 276.108 68.457L276.196 71.709C276.196 79.0039 274.16 84.8633 270.088 89.2871C266.016 93.6816 260.552 95.8789 253.696 95.8789C246.841 95.8789 241.362 93.6816 237.261 89.2871C233.188 84.8926 231.152 78.916 231.152 71.3574V70.7861ZM243.853 71.709C243.853 76.2207 244.702 79.6777 246.401 82.0801C248.101 84.4531 250.532 85.6396 253.696 85.6396C256.772 85.6396 259.175 84.4678 260.903 82.124C262.632 79.751 263.496 75.9717 263.496 70.7861C263.496 66.3623 262.632 62.9346 260.903 60.5029C259.175 58.0713 256.743 56.8555 253.608 56.8555C250.503 56.8555 248.101 58.0713 246.401 60.5029C244.702 62.9053 243.853 66.6406 243.853 71.709ZM299.224 35.7617V47.4512H307.354V56.7676H299.224V80.498C299.224 82.2559 299.561 83.5156 300.234 84.2773C300.908 85.0391 302.197 85.4199 304.102 85.4199C305.508 85.4199 306.753 85.3174 307.837 85.1123V94.7363C305.347 95.498 302.783 95.8789 300.146 95.8789C291.24 95.8789 286.699 91.3818 286.523 82.3877V56.7676H279.58V47.4512H286.523V35.7617H299.224Z" fill="#423881"/>
<path d="M327.767 72.3523L316 1L339 6.36483L327.767 72.3523Z" fill="#423881" stroke="#423881"/>
<ellipse cx="327.883" cy="89.8801" rx="8.05" ry="8.32443" fill="#F87070"/>
</svg>
